<svg xmlns="http://www.w3.org/2000/svg" viewBox="0 0 1000 1000"><defs><style>.cls-1{fill:#444046;}.cls-2{fill:#f6be18;}.cls-3{fill:#fff;}.cls-4{fill:#f08a21;}.cls-5{fill:#d77b1d;}.cls-6{fill:#e6e6e6;}.cls-7{fill:#f4f4f4;}</style></defs><title>Asset 2</title><g id="Layer_2" data-name="Layer 2"><g id="Layer_1-2" data-name="Layer 1"><rect class="cls-1" width="1000" height="1000" rx="61.17" ry="61.17"/><polygon class="cls-2" points="709.45 794.18 301.14 794.18 210.09 378.44 799.08 378.44 709.45 794.18"/><rect class="cls-3" x="280.96" y="762.97" width="439.44" height="30.38"/><polygon class="cls-4" points="298.04 350.38 162.52 350.38 271.97 204 363.71 204 298.04 350.38"/><polygon class="cls-4" points="569.08 350.38 433.56 350.38 455.45 204 547.19 204 569.08 350.38"/><polygon class="cls-4" points="840.12 350.38 704.59 350.38 638.92 204 730.65 204 840.12 350.38"/><polygon class="cls-3" points="433.56 350.38 298.04 350.38 363.71 204 455.45 204 433.56 350.38"/><polygon class="cls-3" points="704.59 350.38 569.08 350.38 547.19 204 638.92 204 704.59 350.38"/><path class="cls-5" d="M834,400a15.82,15.82,0,0,1-6.77,13.44A31.51,31.51,0,0,1,808.84,419H730.65a31.53,31.53,0,0,1-18.42-5.56c-5.09-3.72-7.64-8.58-7.64-13.44V349.32H840.12Z"/><path class="cls-6" d="M704.59,400c0,4.86-2.54,9.72-7.63,13.44A31.55,31.55,0,0,1,678.54,419h-83.4a31.56,31.56,0,0,1-18.43-5.56c-5.09-3.72-7.63-8.58-7.63-13.44V349.32H704.59Z"/><path class="cls-5" d="M569.08,400c0,4.86-2.55,9.72-7.64,13.44A31.54,31.54,0,0,1,543,419h-83.4a31.55,31.55,0,0,1-18.42-5.56c-5.09-3.72-7.63-8.58-7.63-13.44V349.32H569.08Z"/><path class="cls-6" d="M433.56,400c0,4.86-2.55,9.72-7.64,13.44A31.53,31.53,0,0,1,407.5,419H324.1a31.51,31.51,0,0,1-18.42-5.56c-5.09-3.72-7.64-8.58-7.64-13.44V349.32H433.56Z"/><path class="cls-5" d="M298,400c0,4.86-2.54,9.72-7.63,13.44A31.59,31.59,0,0,1,272,419H201.62c-6.67,0-14.21-1.85-19.3-5.56s-12-8.58-12-13.44l-7.82-50.68H298Z"/><polygon class="cls-7" points="624.34 763.16 385.65 763.16 332.43 474.58 676.74 474.58 624.34 763.16"/><polygon class="cls-1" points="603.21 762.1 406.4 762.1 355.71 494.09 650.82 494.32 603.21 762.1"/></g></g></svg>