<svg xmlns="http://www.w3.org/2000/svg" viewBox="0 0 96 96"><defs><style>.cls-1{fill:#444046;}.cls-2{fill:#f6be18;}.cls-3{fill:#fff;}.cls-4{fill:#f08a21;}.cls-5{fill:#d77b1d;}.cls-6{fill:#e6e6e6;}.cls-7{fill:#f4f4f4;}</style></defs><title>Asset 4</title><g id="Layer_2" data-name="Layer 2"><g id="Layer_1-2" data-name="Layer 1"><rect class="cls-1" width="96" height="96" rx="9.17" ry="9.17"/><polygon class="cls-2" points="68.11 76.24 28.91 76.24 20.17 36.33 76.71 36.33 68.11 76.24"/><rect class="cls-3" x="26.97" y="73.25" width="42.19" height="2.92"/><polygon class="cls-4" points="28.61 33.64 15.6 33.64 26.11 19.58 34.92 19.58 28.61 33.64"/><polygon class="cls-4" points="54.63 33.64 41.62 33.64 43.72 19.58 52.53 19.58 54.63 33.64"/><polygon class="cls-4" points="80.65 33.64 67.64 33.64 61.34 19.58 70.14 19.58 80.65 33.64"/><polygon class="cls-3" points="41.62 33.64 28.61 33.64 34.92 19.58 43.72 19.58 41.62 33.64"/><polygon class="cls-3" points="67.64 33.64 54.63 33.64 52.53 19.58 61.34 19.58 67.64 33.64"/><path class="cls-5" d="M80.07,38.4a1.51,1.51,0,0,1-.65,1.29,3,3,0,0,1-1.77.53H70.14a3,3,0,0,1-1.77-.53,1.63,1.63,0,0,1-.73-1.29V33.53h13Z"/><path class="cls-6" d="M67.64,38.4a1.61,1.61,0,0,1-.73,1.29,3,3,0,0,1-1.77.53h-8a3,3,0,0,1-1.77-.53,1.63,1.63,0,0,1-.73-1.29V33.53h13Z"/><path class="cls-5" d="M54.63,38.4a1.61,1.61,0,0,1-.73,1.29,3,3,0,0,1-1.77.53h-8a3,3,0,0,1-1.77-.53,1.63,1.63,0,0,1-.73-1.29V33.53h13Z"/><path class="cls-6" d="M41.62,38.4a1.61,1.61,0,0,1-.73,1.29,3,3,0,0,1-1.77.53h-8a3,3,0,0,1-1.77-.53,1.63,1.63,0,0,1-.73-1.29V33.53h13Z"/><path class="cls-5" d="M28.61,38.4a1.61,1.61,0,0,1-.73,1.29,3,3,0,0,1-1.77.53H19.36a3.29,3.29,0,0,1-1.86-.53c-.49-.36-1.15-.82-1.15-1.29l-.75-4.87h13Z"/><polygon class="cls-7" points="59.94 73.26 37.02 73.26 31.91 45.56 64.97 45.56 59.94 73.26"/><polygon class="cls-1" points="57.91 73.16 39.01 73.16 34.15 47.43 62.48 47.45 57.91 73.16"/></g></g></svg>